<?xml version="1.0" standalone="no"?>
<svg xmlns:xlink="http://www.w3.org/1999/xlink" id="wave" style="transform:rotate(180deg); transition: 0.3s" viewBox="0 0 1440 100" version="1.1" xmlns="http://www.w3.org/2000/svg"><defs><linearGradient id="sw-gradient-0" x1="0" x2="0" y1="1" y2="0"><stop stop-color="rgba(255, 249, 234, 1)" offset="0%"/><stop stop-color="rgba(255, 249, 234, 1)" offset="100%"/></linearGradient></defs><path style="transform:translate(0, 0px); opacity:1" fill="url(#sw-gradient-0)" d="M0,0L24,1.7C48,3,96,7,144,20C192,33,240,57,288,61.7C336,67,384,53,432,41.7C480,30,528,20,576,28.3C624,37,672,63,720,75C768,87,816,83,864,70C912,57,960,33,1008,31.7C1056,30,1104,50,1152,55C1200,60,1248,50,1296,53.3C1344,57,1392,73,1440,70C1488,67,1536,43,1584,31.7C1632,20,1680,20,1728,28.3C1776,37,1824,53,1872,63.3C1920,73,1968,77,2016,73.3C2064,70,2112,60,2160,58.3C2208,57,2256,63,2304,58.3C2352,53,2400,37,2448,28.3C2496,20,2544,20,2592,20C2640,20,2688,20,2736,21.7C2784,23,2832,27,2880,36.7C2928,47,2976,63,3024,63.3C3072,63,3120,47,3168,33.3C3216,20,3264,10,3312,20C3360,30,3408,60,3432,75L3456,90L3456,100L3432,100C3408,100,3360,100,3312,100C3264,100,3216,100,3168,100C3120,100,3072,100,3024,100C2976,100,2928,100,2880,100C2832,100,2784,100,2736,100C2688,100,2640,100,2592,100C2544,100,2496,100,2448,100C2400,100,2352,100,2304,100C2256,100,2208,100,2160,100C2112,100,2064,100,2016,100C1968,100,1920,100,1872,100C1824,100,1776,100,1728,100C1680,100,1632,100,1584,100C1536,100,1488,100,1440,100C1392,100,1344,100,1296,100C1248,100,1200,100,1152,100C1104,100,1056,100,1008,100C960,100,912,100,864,100C816,100,768,100,720,100C672,100,624,100,576,100C528,100,480,100,432,100C384,100,336,100,288,100C240,100,192,100,144,100C96,100,48,100,24,100L0,100Z"/></svg>